<?xml version="1.0" standalone="no"?>
<!DOCTYPE svg PUBLIC "-//W3C//DTD SVG 20010904//EN"
 "http://www.w3.org/TR/2001/REC-SVG-20010904/DTD/svg10.dtd">
<svg version="1.0" xmlns="http://www.w3.org/2000/svg"
 width="260.000000pt" height="260.000000pt" viewBox="0 0 260.000000 260.000000"
 preserveAspectRatio="xMidYMid meet">
<metadata>
Created by potrace 1.11, written by Peter Selinger 2001-2013
</metadata>
<g transform="translate(0.000000,260.000000) scale(0.100000,-0.100000)"
fill="#000000" stroke="none">
<path d="M1290 2593 c-204 -33 -410 -196 -522 -415 -25 -48 -33 -77 -34 -123
-2 -87 -9 -103 -60 -127 -67 -31 -78 -60 -78 -198 0 -137 10 -260 29 -352 8
-37 17 -111 19 -165 5 -85 25 -173 41 -173 3 0 3 55 1 123 -3 67 -1 108 3 91
11 -44 19 -54 44 -54 17 0 23 -6 25 -27 6 -80 39 -135 96 -163 99 -47 251 -26
312 44 17 20 40 36 51 36 22 0 53 74 53 128 0 17 5 33 10 33 6 1 14 2 19 3 5
0 12 4 16 7 3 4 19 2 36 -4 24 -9 29 -17 29 -43 0 -48 35 -124 58 -124 10 0
29 -14 41 -31 46 -62 169 -90 274 -63 79 21 100 41 134 134 7 17 8 -1 6 -60
-4 -77 -18 -149 -38 -205 l-7 -20 14 20 c28 37 47 119 52 215 2 52 5 101 5
108 1 6 8 12 16 12 8 0 17 14 21 36 3 19 15 41 25 47 38 24 10 97 -38 97 l-25
0 6 103 c4 56 8 118 11 137 13 98 20 193 20 261 0 70 -3 80 -37 136 -21 34
-38 67 -38 75 1 9 3 8 10 -3 14 -23 65 -42 95 -35 34 9 31 18 -14 39 -56 26
-70 53 -75 145 -3 63 -9 87 -29 119 -58 92 -195 184 -325 219 -56 15 -203 25
-252 17z m-315 -683 c28 -7 138 -14 246 -15 108 -2 210 -6 225 -9 16 -4 40 -8
53 -11 100 -19 197 -67 247 -123 55 -61 134 -267 134 -349 l0 -23 -152 -1
c-84 0 -162 -2 -173 -4 -53 -7 -82 -16 -130 -40 -69 -33 -126 -33 -201 2 -33
15 -70 30 -84 33 -14 2 -125 5 -246 5 l-221 0 1 50 c1 38 12 68 44 126 23 42
44 93 48 115 3 21 12 68 19 104 33 156 54 172 190 140z m101 -584 c80 -10 136
-51 129 -96 -2 -8 -6 -32 -9 -54 -6 -39 -27 -88 -49 -117 -27 -35 -79 -51
-163 -51 -105 0 -150 20 -181 81 -27 53 -40 144 -25 176 28 61 128 81 298 61z
m711 -2 c18 -2 46 -16 63 -30 34 -29 39 -69 19 -152 -25 -100 -75 -134 -204
-135 -87 -1 -141 19 -171 66 -24 38 -44 111 -44 165 0 34 4 41 38 60 59 33
189 44 299 26z"/>
<path d="M1230 423 c-53 -9 -96 -26 -127 -50 -27 -20 -33 -31 -33 -62 0 -73
80 -185 157 -217 38 -17 74 -60 66 -81 -9 -24 112 57 173 116 88 85 113 155
79 221 -27 52 -91 75 -210 77 -44 1 -91 -1 -105 -4z"/>
</g>
</svg>
