<svg width="30" height="31" viewBox="0 0 30 31" fill="none" xmlns="http://www.w3.org/2000/svg">
<path d="M14.5003 3.20402C14.8525 3.62319 15.0259 4.17757 15.0259 4.73196C15.0259 5.28634 14.8511 5.83937 14.5017 6.26124L8.61266 13.3858L25.7611 13.3858C26.7502 13.3858 27.5 14.3545 27.5 15.4884C27.5 16.6221 26.7508 17.7126 25.7611 17.7126L8.61266 17.7126L14.5003 24.8364C15.1992 25.6815 15.1992 27.0506 14.5003 27.8957C13.8014 28.7408 12.6691 28.7408 11.9702 27.8957L3.02418 17.0784C2.32527 16.2333 2.32527 14.8643 3.02418 14.0192L11.9702 3.20199C12.6719 2.35893 13.8014 2.35893 14.5003 3.20402Z" fill="white"/>
</svg>
