<svg width="31" height="30" viewBox="0 0 31 30" fill="none" xmlns="http://www.w3.org/2000/svg">
<path fill-rule="evenodd" clip-rule="evenodd" d="M15.9983 30C7.72662 30 0.998291 23.2717 0.998291 15C0.998291 6.72833 7.72662 0 15.9983 0C24.27 0 30.9983 6.72833 30.9983 15C30.9983 23.2717 24.27 30 15.9983 30ZM28.6483 17.0533C28.21 16.915 24.6816 15.8633 20.6683 16.505C22.3433 21.11 23.025 24.8617 23.1566 25.64C24.6099 24.6597 25.847 23.3921 26.7915 21.9152C27.736 20.4384 28.3679 18.7838 28.6483 17.0533ZM21.0033 26.8133C20.8133 25.69 20.07 21.7717 18.27 17.0967L18.1866 17.1267C10.9583 19.6433 8.36496 24.6567 8.13329 25.1267C9.93311 26.5301 12.0756 27.4266 14.3385 27.7232C16.6015 28.0197 18.9026 27.7056 21.0033 26.8133ZM6.47996 23.5867C6.76996 23.09 10.2866 17.2667 16.8933 15.1317C17.06 15.0767 17.23 15.0267 17.3983 14.9783C17.0726 14.2443 16.7263 13.5196 16.36 12.805C9.96162 14.72 3.75329 14.6383 3.19329 14.6283C3.08923 17.9271 4.26722 21.1379 6.47996 23.5867ZM3.45662 12.395C4.02996 12.4033 9.30829 12.4267 15.3016 10.835C13.8525 8.28153 12.2668 5.80794 10.5516 3.425C8.75719 4.27151 7.18296 5.52174 5.9521 7.07788C4.72124 8.63402 3.86714 10.4539 3.45662 12.395ZM12.9966 2.56333C14.751 4.95697 16.3477 7.46227 17.7766 10.0633C22.3316 8.35667 24.26 5.76333 24.4916 5.435C22.949 4.0652 21.098 3.08867 19.0965 2.58866C17.095 2.08864 15.0022 2.07995 12.9966 2.56333ZM25.915 6.91667C25.6433 7.28333 23.4983 10.035 18.76 11.9683C19.1647 12.7939 19.5405 13.6333 19.8866 14.485C24.1483 13.95 28.385 14.8083 28.8066 14.8983C28.7828 11.9856 27.7623 9.1688 25.915 6.91667Z" fill="#222222"/>
</svg>
