<svg width="31" height="30" viewBox="0 0 31 30" fill="none" xmlns="http://www.w3.org/2000/svg">
<path fill-rule="evenodd" clip-rule="evenodd" d="M0.998363 8.39667C0.996607 7.29351 1.21259 6.20086 1.63394 5.18133C2.05529 4.16181 2.67372 3.23547 3.45377 2.45542C4.23382 1.67537 5.16016 1.05694 6.17968 0.635592C7.19921 0.214242 8.29187 -0.00174531 9.39502 1.06209e-05H22.6017C23.7048 -0.00174531 24.7975 0.214242 25.817 0.635592C26.8365 1.05694 27.7629 1.67537 28.5429 2.45542C29.323 3.23547 29.9414 4.16181 30.3628 5.18133C30.7841 6.20086 31.0001 7.29351 30.9983 8.39667V21.6033C31.0001 22.7065 30.7841 23.7991 30.3628 24.8187C29.9414 25.8382 29.323 26.7645 28.5429 27.5446C27.7629 28.3246 26.8365 28.9431 25.817 29.3644C24.7975 29.7858 23.7048 30.0017 22.6017 30H9.39502C8.29187 30.0017 7.19921 29.7858 6.17968 29.3644C5.16016 28.9431 4.23382 28.3246 3.45377 27.5446C2.67372 26.7645 2.05529 25.8382 1.63394 24.8187C1.21259 23.7991 0.996607 22.7065 0.998363 21.6033V8.39667ZM3.71503 8.72501V21.275C3.71371 22.0645 3.86821 22.8464 4.16967 23.5761C4.47113 24.3057 4.91362 24.9687 5.47179 25.5271C6.02995 26.0854 6.69282 26.5281 7.42239 26.8297C8.15195 27.1314 8.93388 27.2861 9.72336 27.285H22.2734C23.063 27.2863 23.8451 27.1318 24.5748 26.8302C25.3046 26.5286 25.9677 26.086 26.526 25.5276C27.0843 24.9693 27.527 24.3062 27.8285 23.5765C28.1301 22.8467 28.2847 22.0646 28.2833 21.275V8.72501C28.2847 7.93539 28.1301 7.15328 27.8285 6.42352C27.527 5.69376 27.0843 5.0307 26.526 4.47236C25.9677 3.91402 25.3046 3.47137 24.5748 3.16981C23.8451 2.86825 23.063 2.71369 22.2734 2.71501H9.72336C8.93388 2.71391 8.15195 2.86863 7.42239 3.17029C6.69282 3.47195 6.02995 3.91463 5.47179 4.47295C4.91362 5.03127 4.47113 5.69426 4.16967 6.42391C3.86821 7.15356 3.71371 7.93553 3.71503 8.72501ZM15.9983 22.63C13.9747 22.63 12.034 21.8261 10.6031 20.3952C9.17221 18.9643 8.36834 17.0236 8.36834 15C8.36834 12.9764 9.17221 11.0357 10.6031 9.60476C12.034 8.17386 13.9747 7.36999 15.9983 7.36999C18.0219 7.36999 19.9627 8.17386 21.3936 9.60476C22.8245 11.0357 23.6283 12.9764 23.6283 15C23.6283 17.0236 22.8245 18.9643 21.3936 20.3952C19.9627 21.8261 18.0219 22.63 15.9983 22.63ZM15.9983 19.9133C17.3014 19.9133 18.5512 19.3957 19.4726 18.4742C20.394 17.5528 20.9117 16.3031 20.9117 15C20.9117 13.6969 20.394 12.4472 19.4726 11.5257C18.5512 10.6043 17.3014 10.0867 15.9983 10.0867C14.6952 10.0867 13.4455 10.6043 12.5241 11.5257C11.6027 12.4472 11.085 13.6969 11.085 15C11.085 16.3031 11.6027 17.5528 12.5241 18.4742C13.4455 19.3957 14.6952 19.9133 15.9983 19.9133ZM25.6966 6.98334C25.6966 7.98297 24.8863 8.79333 23.8866 8.79333C22.887 8.79333 22.0766 7.98297 22.0766 6.98334C22.0766 5.9837 22.887 5.17334 23.8866 5.17334C24.8863 5.17334 25.6966 5.9837 25.6966 6.98334Z" fill="#222222"/>
</svg>
