<svg width="30" height="30" viewBox="0 0 30 30" fill="none" xmlns="http://www.w3.org/2000/svg">
<path fill-rule="evenodd" clip-rule="evenodd" d="M25.5636 25.5619H21.1138V18.6006C21.1138 16.9407 21.0855 14.8042 18.8023 14.8042C16.4858 14.8042 16.1341 16.6141 16.1341 18.4823V25.5619H11.6894V11.246H15.9558V13.2043H16.0158C16.6091 12.0777 18.0607 10.8911 20.2255 10.8911C24.7303 10.8911 25.5636 13.8559 25.5636 17.7107V25.5619ZM6.67296 9.29115C6.33417 9.29148 5.99863 9.22507 5.6855 9.09573C5.37238 8.96638 5.08779 8.77663 4.848 8.5373C4.36371 8.05395 4.09127 7.39801 4.09061 6.71379C4.08994 6.02957 4.36111 5.37311 4.84446 4.88883C5.32781 4.40454 5.98374 4.1321 6.66796 4.13144C7.35218 4.13077 8.00864 4.40194 8.49293 4.88529C8.97722 5.36864 9.24966 6.02457 9.25032 6.70879C9.25098 7.39301 8.97981 8.04947 8.49646 8.53376C8.01312 9.01805 7.35718 9.29049 6.67296 9.29115ZM4.44475 25.5619H8.89951V11.246H4.44475V25.5619ZM27.7785 0H2.21321C0.991612 0 0 0.96828 0 2.16321V27.8335C0 29.0284 0.991612 30 2.21321 30H27.7785C29.0017 30 29.9983 29.0284 29.9983 27.8335V2.16321C29.9983 0.96828 29.0017 0 27.7785 0Z" fill="#222222"/>
</svg>
