<svg width="31" height="26" viewBox="0 0 31 26" fill="none" xmlns="http://www.w3.org/2000/svg">
<path fill-rule="evenodd" clip-rule="evenodd" d="M15.5652 7.1501L15.6302 8.23178L14.5468 8.09844C10.6018 7.59177 7.15506 5.87007 4.22834 2.98003L2.79665 1.54667L2.42998 2.60502C1.6483 4.96506 2.14664 7.4601 3.77334 9.13679C4.64002 10.0635 4.44501 10.1951 2.94999 9.64347C2.42831 9.46847 1.97331 9.33513 1.92997 9.4018C1.77997 9.55513 2.29831 11.5635 2.70999 12.3585C3.27499 13.4619 4.42335 14.5419 5.68003 15.1836L6.74338 15.6902L5.48503 15.7136C4.27168 15.7136 4.22834 15.7352 4.35835 16.1969C4.79169 17.6336 6.50505 19.1553 8.41175 19.817L9.7551 20.2803L8.58508 20.987C6.81698 22.0124 4.81839 22.5742 2.77499 22.6203C1.79997 22.642 0.998291 22.7303 0.998291 22.797C0.998291 23.017 3.64333 24.2537 5.18169 24.7387C9.79843 26.1721 15.2819 25.5554 19.4019 23.1054C22.3286 21.362 25.2554 17.8969 26.6204 14.5435C27.3571 12.7552 28.0937 9.49013 28.0937 7.92344C28.0937 6.90676 28.1604 6.77509 29.3738 5.56174C30.0888 4.85506 30.7604 4.08338 30.8904 3.86171C31.1071 3.44337 31.0854 3.44337 29.9804 3.81837C28.1387 4.48005 27.8771 4.39172 28.7887 3.39837C29.4604 2.69336 30.2621 1.41334 30.2621 1.03833C30.2621 0.971661 29.9371 1.08166 29.5688 1.28C29.1788 1.50167 28.3121 1.83168 27.6604 2.03001L26.4904 2.40502L25.4287 1.67834C24.8437 1.28 24.0187 0.838326 23.5853 0.706657C22.4803 0.398319 20.7886 0.441653 19.7919 0.794992C17.0819 1.78834 15.3702 4.34838 15.5652 7.1501Z" fill="#222222"/>
</svg>
