<svg width="30" height="31" viewBox="0 0 30 31" fill="none" xmlns="http://www.w3.org/2000/svg">
<path fill-rule="evenodd" clip-rule="evenodd" d="M22.7782 26.1564C23.5592 26.9375 24.8256 26.9375 25.6066 26.1564C26.3877 25.3754 26.3877 24.109 25.6066 23.328L17.8286 15.55L25.6069 7.77169C26.388 6.99064 26.388 5.72431 25.6069 4.94327C24.8259 4.16222 23.5595 4.16222 22.7785 4.94327L15.0002 12.7216L7.22183 4.94321C6.44078 4.16216 5.17445 4.16216 4.3934 4.94321C3.61236 5.72426 3.61235 6.99059 4.3934 7.77164L12.1718 15.55L4.39372 23.328C3.61267 24.1091 3.61267 25.3754 4.39372 26.1565C5.17476 26.9375 6.44109 26.9375 7.22214 26.1565L15.0002 18.3784L22.7782 26.1564Z" fill="black"/>
</svg>
